<svg xmlns="http://www.w3.org/2000/svg" width="32" height="32" viewBox="0 0 32 32">
    <g fill="#FFF" opacity=".655">
        <path d="M11.465.047c-.772 0-1.4.628-1.4 1.4 0 .772.628 1.4 1.4 1.4.771 0 1.399-.628 1.399-1.4 0-.772-.628-1.4-1.4-1.4zM6.432.047c-.77 0-1.4.628-1.4 1.4 0 .772.63 1.4 1.4 1.4.772 0 1.4-.628 1.4-1.4 0-.772-.628-1.4-1.4-1.4zM1.4.047c-.771 0-1.4.628-1.4 1.4 0 .772.629 1.4 1.4 1.4.771 0 1.4-.628 1.4-1.4 0-.772-.629-1.4-1.4-1.4z" transform="translate(10 15)"/>
    </g>
</svg>
