<svg xmlns="http://www.w3.org/2000/svg" width="43" height="38" viewBox="0 0 43 38">
    <defs>
        <linearGradient id="prefix__a" x1="50%" x2="50%" y1="0%" y2="99.731%">
            <stop offset="0%" stop-color="#A6A6A6"/>
            <stop offset="100%" stop-color="#ADADAD"/>
        </linearGradient>
    </defs>
    <g fill="none" fill-rule="evenodd">
        <circle cx="25" cy="19" r="8" fill="#F7B500" opacity=".564"/>
        <g fill="#A9A9A9" fill-rule="nonzero" opacity=".694">
            <path d="M30.818 16.204h-3.882c-.321 0-.582.26-.582.582 0 .322.26.583.582.583h3.882c.321 0 .582-.26.582-.583 0-.322-.26-.582-.582-.582zM25.286 11.207c.1 0 .2-.025.29-.077l3.362-1.94c.278-.162.374-.518.213-.796-.162-.279-.519-.374-.796-.213l-3.36 1.94c-.278.16-.374.517-.214.795.11.187.304.291.505.291zM20.485 6.619c.09.053.191.078.29.078.201 0 .397-.105.505-.291l1.94-3.361c.16-.279.066-.635-.213-.796-.278-.16-.634-.064-.795.214l-1.941 3.36c-.16.28-.065.635.214.796zM14.614 5.046c.322 0 .582-.26.583-.582V.582c0-.322-.26-.582-.583-.582-.322 0-.582.26-.582.582v3.881c0 .323.261.583.582.583zM7.949 6.406c.108.187.303.29.504.29.1 0 .2-.024.291-.077.278-.16.374-.516.213-.795l-1.94-3.36c-.162-.28-.518-.375-.796-.214-.278.16-.374.516-.213.795l1.94 3.36zM.291 9.189l3.36 1.94c.092.053.192.078.29.078.202 0 .398-.104.506-.291.16-.278.066-.634-.213-.796L.874 8.18c-.278-.16-.635-.067-.796.213-.16.279-.065.635.213.796zM28.938 24.384l-3.362-1.941c-.278-.16-.634-.066-.795.213-.162.278-.066.634.213.795l3.361 1.941c.092.053.192.078.291.078.202 0 .397-.104.505-.291.161-.279.065-.634-.213-.795z" transform="translate(11 .182)"/>
        </g>
        <path fill="url(#prefix__a)" fill-rule="nonzero" d="M36.328 31.633c0 2.972-2.474 5.383-5.526 5.383H8.042c-4.26 0-7.714-3.365-7.714-7.515 0-4.152 3.454-7.516 7.714-7.516.123 0 .242.012.364.018.278-3.903 3.608-6.987 7.686-6.987 3.63 0 6.665 2.443 7.487 5.732.678-.32 1.435-.505 2.24-.505 2.842 0 5.142 2.241 5.142 5.01 0 .341-.035.675-.102.999 3.026.03 5.469 2.427 5.469 5.38z"/>
    </g>
</svg>
