<svg xmlns="http://www.w3.org/2000/svg" width="24" height="24" viewBox="0 0 24 24">
    <path fill="#505458" fill-rule="evenodd" d="M11.804 4c1.081 0 1.964.851 2.014 1.92 1.883.796 3.152 2.654 3.152 4.758v2.903c.844.065 1.512.771 1.512 1.633 0 .904-.735 1.638-1.64 1.638H6.766c-.905 0-1.64-.733-1.64-1.638 0-.861.666-1.569 1.512-1.633v-2.903c0-2.104 1.268-3.962 3.152-4.759C9.84 4.851 10.724 4 11.804 4zM10.61 6.958c-1.603.513-2.712 2.009-2.712 3.72v3.024c0 .626-.508 1.134-1.133 1.134-.21 0-.379.17-.379.378 0 .209.17.378.38.378h10.076c.21 0 .38-.17.38-.378s-.17-.378-.379-.378c-.626 0-1.133-.507-1.133-1.134v-3.024c0-1.71-1.11-3.207-2.712-3.72l-.438-.14v-.804c0-.416-.339-.754-.756-.754s-.756.338-.756.754v.803l-.438.14zm-1.2 9.894h1.26c0 .626.508 1.134 1.134 1.134.626 0 1.134-.508 1.134-1.134h1.26c0 1.322-1.072 2.394-2.394 2.394S9.41 18.174 9.41 16.852z"/>
</svg>
