<svg xmlns="http://www.w3.org/2000/svg" width="24" height="24" viewBox="0 0 24 24">
    <path fill="#E1245E" stroke="#E1245E" stroke-width=".5" d="M3.918 14.63H8.51v6.734c0 .169.137.306.306.306h3.06c.133 0 .25-.084.291-.21l.892-2.675 4.748-4.155h2.64c.448.002.83-.322.905-.763.074-.442-.182-.873-.606-1.018-.13-4.304-3.43-7.844-7.714-8.276.158-.384.04-.827-.29-1.08-.33-.252-.788-.252-1.118 0-.33.253-.448.696-.29 1.08-4.284.432-7.584 3.972-7.714 8.276-.424.145-.68.576-.606 1.018.074.441.457.765.905.763zm8.675 3.75c-.041.035-.072.08-.09.133l-.848 2.545H9.121V14.63c.338 0 .612.275.612.613v2.142c0 .089.039.173.106.231.067.059.156.085.244.072l2.142-.306c.047-.007.092-.026.13-.054v.003l3.902-2.7h.62l-4.284 3.748zm-.59-1.585l-.017.003.722-2.168h.739l-1.444 2.165zm2.18-2.165h.998l-1.855 1.286.856-1.286zm-2.874 2.265l-.963.137v-1.79c-.002-.215-.06-.426-.17-.612h1.888l-.755 2.265zm.567-12.67c0-.17.137-.307.306-.307.169 0 .306.137.306.306 0 .17-.137.306-.306.306-.17 0-.306-.137-.306-.306zm.306.917c4.274.006 7.782 3.382 7.952 7.652H4.23c.17-4.27 3.678-7.646 7.952-7.652zm-8.264 8.264h16.528c.169 0 .306.137.306.306 0 .17-.137.306-.306.306H3.918c-.169 0-.306-.137-.306-.306 0-.169.137-.306.306-.306z"/>
</svg>
