<svg xmlns="http://www.w3.org/2000/svg" width="24" height="24" viewBox="0 0 24 24">
    <g fill="currentColor" stroke="currentColor" stroke-width=".4">
        <path d="M15.829 0H1.283C.575 0 0 .575 0 1.283c0 .71.575 1.284 1.283 1.284h.428v10.945c0 .115.045.224.126.305.081.08.19.125.305.124.113 0 .22-.045.3-.126l.98-.981L4.53 13.94c.16.16.378.25.605.25.227 0 .444-.09.605-.25l1.106-1.106L7.95 13.94c.16.16.378.25.605.25.227 0 .445-.09.605-.25l1.106-1.106 1.106 1.106c.16.16.378.25.605.25.227 0 .445-.09.605-.25l1.107-1.106.98.98c.08.082.187.127.3.127.114.001.224-.044.305-.124.08-.08.126-.19.126-.305V2.567h.428c.708 0 1.283-.575 1.283-1.284C17.112.575 16.537 0 15.829 0h0zM1.71 1.711h-.428c-.236 0-.427-.191-.427-.428 0-.236.191-.427.427-.427h.428v.855zM14.545 12.48l-.855-.856-1.712 1.711-1.71-1.711-1.712 1.711-1.711-1.711-1.711 1.711-1.712-1.711-.855.856V.856h11.978V12.48zM15.83 1.71H15.4V.856h.428c.236 0 .427.191.427.427 0 .237-.191.428-.427.428z" transform="translate(3 5)"/>
        <path d="M4.706 4.278h7.7c.236 0 .428-.192.428-.428s-.192-.428-.428-.428h-7.7c-.236 0-.428.192-.428.428s.192.428.428.428zM4.706 6.845h7.7c.236 0 .428-.192.428-.428s-.192-.428-.428-.428h-7.7c-.236 0-.428.192-.428.428s.192.428.428.428zM4.706 9.412h7.7c.236 0 .428-.192.428-.428s-.192-.428-.428-.428h-7.7c-.236 0-.428.192-.428.428s.192.428.428.428z" transform="translate(3 5)"/>
    </g>
</svg>
