<svg xmlns="http://www.w3.org/2000/svg" width="24" height="24" viewBox="0 0 24 24">
    <g fill="#E1245E" fill-rule="evenodd">
        <path fill-rule="nonzero" stroke="#E1245E" stroke-width=".1" d="M16.648 4.981c0-2.06-1.67-3.73-3.73-3.73H3.786c-2.06 0-3.73 1.67-3.73 3.73v7.266c0 1.838 1.336 3.369 3.09 3.675v3.146c0 .223.14.446.334.557.084.056.195.056.278.056.14 0 .251-.028.362-.112l1.866-1.364c2.032-1.475 4.426-2.255 6.932-2.255 2.06 0 3.73-1.67 3.73-3.73V4.98h0zm-1.225 7.266c0 1.365-1.113 2.478-2.477 2.478-2.757 0-5.401.863-7.656 2.478l-.891.64v-2.505c0-.334-.279-.613-.613-.613-1.364 0-2.478-1.113-2.478-2.478V4.981c0-1.364 1.114-2.478 2.478-2.478h9.16c1.364 0 2.477 1.114 2.477 2.478v7.266z" transform="translate(4 3)"/>
        <text font-family="Poppins-Medium, Poppins" font-size="12" font-weight="400" transform="translate(4 3)">
            <tspan x="6" y="13">?</tspan>
        </text>
    </g>
</svg>
