<svg xmlns="http://www.w3.org/2000/svg" width="24" height="24" viewBox="0 0 24 24">
    <path fill="#E1245E" stroke="#E1245E" stroke-width=".5" d="M19.783 7.386l-.465-1.151c-.267-.662-1.014-.986-1.665-.723-.198.08-.364.205-.493.36-.416-.637-1.226-.916-1.944-.627-.817.33-1.209 1.279-.871 2.113l.445 1.102-7.269 2.937-.445-1.102C6.74 9.46 5.8 9.05 4.981 9.38c-.717.29-1.106 1.054-.963 1.8-.2-.021-.406.004-.604.084-.651.263-.963 1.015-.696 1.677l.465 1.15c-.27.245-.378.634-.237.985l.155.383c.142.351.49.556.855.544l.498 1.232c.267.662 1.014.986 1.665.723.198-.08.364-.205.492-.36.416.637 1.227.917 1.944.627.818-.33 1.21-1.278.872-2.113l-.445-1.102 7.268-2.936.446 1.102c.337.834 1.276 1.244 2.094.914.717-.29 1.106-1.055.964-1.801.2.021.406-.004.604-.084.65-.263.963-1.015.695-1.676l-.498-1.233c.271-.244.379-.633.237-.984l-.155-.384c-.142-.35-.49-.556-.854-.543zM6.16 16.547c.126.312-.008.662-.297.779-.29.117-.629-.042-.755-.354l-1.735-4.295c-.126-.312.007-.662.297-.779.29-.117.628.042.754.354l1.735 4.295h0zm2.612-.17c.196.486-.016 1.03-.473 1.215-.457.185-.988-.06-1.184-.545l-.256-.633c-.012-.044-.027-.088-.045-.131L5.08 11.988c-.017-.044-.037-.085-.059-.126l-.256-.633c-.196-.485.016-1.03.473-1.215.457-.184.988.06 1.184.545l2.351 5.819zm7.24-4.892L8.743 14.42l-.983-2.434 7.268-2.937.984 2.435h0zm2.995.758c.196.485-.016 1.03-.473 1.214-.457.185-.988-.06-1.184-.545L15 7.093c-.197-.485.015-1.03.472-1.214.457-.185.988.06 1.184.545l.256.633c.013.045.027.088.045.132l1.735 4.295c.018.043.038.085.06.125l.255.634zm1.392-1.449c.126.312-.007.662-.297.779-.29.117-.629-.042-.755-.354l-1.735-4.295c-.126-.312.007-.662.297-.779.29-.117.628.042.754.354l1.736 4.295z"/>
</svg>
