<svg xmlns="http://www.w3.org/2000/svg" width="24" height="24" viewBox="0 0 24 24">
    <g fill="none" fill-rule="evenodd">
        <path d="M0 0H18.565V18.565H0z" transform="translate(3 2)" />
        <g fill-rule="nonzero">
            <path fill="currentColor" d="M8.703 4.641c-.32 0-.58-.26-.58-.58 0-.32.26-.58.58-.58.64 0 1.16-.52 1.16-1.16 0-.64-.52-1.16-1.16-1.16-.64 0-1.16.52-1.16 1.16 0 .32-.26.58-.58.58-.321 0-.581-.26-.581-.58C6.382 1.04 7.422 0 8.702 0c1.28 0 2.321 1.04 2.321 2.32 0 1.28-1.04 2.321-2.32 2.321z" transform="translate(3 2) translate(.58 .58)" />
            <path fill="currentColor" d="M8.703 5.802c-.32 0-.58-.26-.58-.58v-1.16c0-.321.26-.581.58-.581.32 0 .58.26.58.58v1.16c0 .32-.26.58-.58.58z" transform="translate(3 2) translate(.58 .58)" />
            <path fill="currentColor" d="M5.222 8.288c-.18 0-.36-.084-.473-.243-.186-.26-.126-.623.135-.81L8.365 4.75c.26-.185.624-.126.81.135.186.261.125.624-.135.81L5.559 8.18c-.102.073-.22.108-.337.108z" transform="translate(3 2) translate(.58 .58)" />
            <path fill="currentColor" d="M.58 11.603c-.18 0-.359-.084-.472-.243-.186-.26-.126-.623.135-.809l4.641-3.316c.26-.186.624-.126.81.136.186.26.126.623-.135.809L.917 11.495c-.102.073-.22.108-.336.108z" transform="translate(3 2) translate(.58 .58)" />
            <path fill="currentColor" d="M5.222 11.603H.58c-.32 0-.58-.259-.58-.58 0-.32.26-.58.58-.58h4.642c.32 0 .58.26.58.58 0 .321-.26.58-.58.58z" transform="translate(3 2) translate(.58 .58)" />
            <path fill="currentColor" d="M16.825 11.603H5.222c-.32 0-.58-.259-.58-.58 0-.32.26-.58.58-.58h11.603c.32 0 .58.26.58.58 0 .321-.26.58-.58.58z" transform="translate(3 2) translate(.58 .58)" />
            <path fill="currentColor" d="M16.824 11.603c-.116 0-.234-.035-.336-.108L11.847 8.18c-.261-.186-.322-.549-.135-.81.186-.26.549-.32.81-.135l4.64 3.316c.261.186.322.548.135.81-.113.158-.291.242-.473.242z" transform="translate(3 2) translate(.58 .58)" />
            <path fill="currentColor" d="M12.183 8.288c-.117 0-.234-.035-.336-.108L8.365 5.694c-.26-.186-.32-.549-.135-.81.187-.26.55-.32.81-.135l3.48 2.487c.261.186.322.549.135.81-.113.158-.29.242-.472.242z" transform="translate(3 2) translate(.58 .58)" />
            <path stroke="currentColor" stroke-width="1.126" d="M2.32 11.023v2.598c0 .478.521.866 1.161.866h10.443c.64 0 1.16-.388 1.16-.866v-2.598H2.321z" transform="translate(3 2) translate(.58 .58)" />
            <path fill="currentColor" d="M14.504 17.405H2.901c-.32 0-.58-.26-.58-.58 0-.32.26-.58.58-.58h11.603c.321 0 .58.26.58.58 0 .32-.259.58-.58.58z" transform="translate(3 2) translate(.58 .58)" />
        </g>
    </g>
</svg>
