<svg xmlns="http://www.w3.org/2000/svg" width="24" height="24" viewBox="0 0 24 24">
    <path fill="#E1245E" stroke="#E1245E" stroke-width=".4" d="M16.038 12.96H7.861c-2.1.002-3.802 1.704-3.804 3.804v2.044c0 .972.788 1.76 1.76 1.76h12.265c.972 0 1.76-.788 1.76-1.76v-2.044c-.002-2.1-1.704-3.802-3.804-3.805h0zm3.01 5.848c0 .533-.433.965-.966.965H5.817c-.533 0-.965-.432-.965-.965v-2.044c.002-1.662 1.348-3.008 3.01-3.01h3.69v3.691h.795v-3.69h3.691c1.662.001 3.008 1.347 3.01 3.009v2.044zm-2.004-8.404c-.557-.795-.567-1.757-.589-2.977 0-.285-.008-.579-.02-.89 0-2.477-2.008-4.486-4.485-4.486-2.478 0-4.486 2.009-4.486 4.486-.012.311-.016.605-.02.89-.018 1.22-.031 2.183-.589 2.977l-.44.626h11.07l-.44-.626zm-9.19-.17c.356-.835.37-1.76.385-2.796 0-.283.008-.576.02-.88v-.015c0-2.039 1.652-3.691 3.69-3.691 2.04 0 3.692 1.652 3.692 3.69v.015c.011.305.016.598.019.88.016 1.038.03 1.962.386 2.797H7.853z"/>
</svg>
