<svg xmlns="http://www.w3.org/2000/svg" width="24" height="24" viewBox="0 0 24 24">
    <g fill="currentColor" stroke="currentColor" stroke-width=".5">
        <path d="M8.579 8.375H2.995l-.37-.47.4-1.638c.135-.552.62-.937 1.18-.937h3.162c.56 0 1.046.385 1.18.937l.4 1.637-.368.471zm-5.1-.761h4.615l-.286-1.166c-.05-.21-.232-.357-.44-.357H4.205c-.208 0-.389.147-.44.357L3.48 7.614zM15.278 8.375H9.695l-.37-.47.4-1.638c.135-.552.62-.937 1.18-.937h3.163c.56 0 1.045.385 1.18.937l.4 1.637-.37.471zm-5.098-.761h4.614l-.285-1.166c-.052-.21-.233-.357-.44-.357h-3.163c-.208 0-.39.147-.44.357l-.286 1.166z" transform="translate(3 5)"/>
        <path d="M16.75 15.228c-.839 0-1.522-.683-1.522-1.523H3.046c0 .84-.683 1.523-1.523 1.523-.84 0-1.523-.683-1.523-1.523V9.897C0 8.64 1.024 7.614 2.283 7.614h13.708c1.259 0 2.283 1.024 2.283 2.283v3.808c0 .84-.683 1.523-1.523 1.523zM2.666 12.944h12.944l.38.38v.381c0 .42.342.762.762.762s.761-.342.761-.762V9.897c0-.84-.682-1.522-1.521-1.522H2.283c-.839 0-1.522.683-1.522 1.522v3.808c0 .42.342.762.762.762s.761-.342.761-.762v-.38l.38-.381z" transform="translate(3 5)"/>
        <path d="M16.37 8.375H1.903l-.38-.38v-6.47C1.523.683 2.207 0 3.047 0h12.18c.84 0 1.524.684 1.524 1.524v6.47l-.38.381zM2.284 7.614H15.99v-6.09c0-.42-.341-.763-.763-.763H3.047c-.42 0-.763.343-.763.763v6.09z" transform="translate(3 5)"/>
    </g>
</svg>
