<svg xmlns="http://www.w3.org/2000/svg" width="24" height="24" viewBox="0 0 24 24">
    <g fill="currentColor">
        <path d="M16.2 13.2h-.6V.6c0-.331-.269-.6-.6-.6H6.6c-.331 0-.6.269-.6.6v6.6H1.8c-.331 0-.6.269-.6.6v5.4H.6c-.331 0-.6.269-.6.6 0 .331.269.6.6.6h15.6c.331 0 .6-.269.6-.6 0-.331-.269-.6-.6-.6zM2.4 8.4H6v4.8H2.4V8.4zm7.2 4.8V12h.6c.331 0 .6-.269.6-.6 0-.331-.269-.6-.6-.6h-.6V9.6H12v3.6H9.6zm3.6 0V9c0-.331-.269-.6-.6-.6H9c-.331 0-.6.269-.6.6v4.2H7.2v-12h7.2v12h-1.2z" transform="translate(3 5)"/>
        <path d="M4.2 9.6c-.331 0-.6.269-.6.6v1.2c0 .331.269.6.6.6.331 0 .6-.269.6-.6v-1.2c0-.331-.269-.6-.6-.6zM9.6 2.4H9c-.331 0-.6.269-.6.6 0 .331.269.6.6.6h.6c.331 0 .6-.269.6-.6 0-.331-.269-.6-.6-.6zM9.6 4.8H9c-.331 0-.6.269-.6.6 0 .331.269.6.6.6h.6c.331 0 .6-.269.6-.6 0-.331-.269-.6-.6-.6zM12.6 2.4H12c-.331 0-.6.269-.6.6 0 .331.269.6.6.6h.6c.331 0 .6-.269.6-.6 0-.331-.269-.6-.6-.6zM12.6 4.8H12c-.331 0-.6.269-.6.6 0 .331.269.6.6.6h.6c.331 0 .6-.269.6-.6 0-.331-.269-.6-.6-.6z" transform="translate(3 5)"/>
    </g>
</svg>
