<svg xmlns="http://www.w3.org/2000/svg" width="24" height="24" viewBox="0 0 24 24">
    <path fill="currentColor" stroke="currentColor" stroke-width=".3" d="M11.275 11.969l-.43-1.606-.001-.004c.015-.049.026-.1.026-.153v-.43c0-.286-.234-.52-.521-.52h-5.39c-.287 0-.52.234-.52.52v.43c0 .05.009.097.022.143l-.007.018-.422 1.604c-.021.08-.032.163-.032.246v7.854c0 .299.14.563.353.74l.228.783c.072.247.26.406.481.406h5.184c.22 0 .409-.16.48-.406l.229-.783c.214-.177.353-.44.353-.74v-7.853c0-.083-.011-.168-.033-.25zM5.08 9.899h5.148v.184H5.08V9.9zm-.057.827h5.255l.27 1.006h-5.79l.265-1.006zm5.104 10.631H5.18l-.094-.322h5.135l-.094.322zm.54-1.286c0 .155-.11.285-.256.315-.021.004-.043.007-.065.007H4.962c-.022 0-.044-.003-.065-.007-.146-.03-.256-.16-.256-.315v-.71h6.026v.71zm0-1.353H4.64v-6.344h6.026v6.344zm8.789-7.872l-.781-1.033c-.123-.162-.19-.355-.197-.568l-.307-5.32c.172-.088.29-.26.29-.459 0-.02-.001-.04-.005-.06l-.124-.653c-.084-.436-.487-.753-.96-.753h-1.815c-.474 0-.877.317-.96.753l-.125.653c-.004.02-.006.04-.006.06 0 .2.12.371.291.458l-.308 5.33c-.005.204-.073.397-.195.559l-.782 1.033c-.35.464-.544 1.04-.544 1.621v8.782c0 .414.336.751.75.751h5.573c.413 0 .749-.337.749-.75v-8.783c0-.582-.193-1.158-.544-1.621zm-4.23-7.973c.026-.131.168-.23.33-.23h1.816c.163 0 .305.099.33.23l.09.47h-.364v-.288c0-.119-.095-.215-.214-.215-.118 0-.213.096-.213.215v.288h-.323v-.288c0-.119-.096-.215-.214-.215s-.214.096-.214.215v.288h-.322v-.288c0-.119-.096-.215-.214-.215s-.214.096-.214.215v.288h-.363l.09-.47zm2.443 3.47l.084 1.461h-2.578l.085-1.461h2.409zM15.297 5.7l.099-1.715h2.136l.1 1.715h-2.335zm4.062 15.55c0 .059-.049.107-.108.107h-5.573c-.06 0-.109-.048-.109-.108v-1.736h5.79v1.736zm0-2.38h-5.79v-5.187h5.79v5.188zm0-5.83h-5.79v-.573c0-.442.147-.88.414-1.233l.782-1.033c.204-.27.316-.59.325-.92l.048-.834h2.652l.048.825c.01.338.122.66.326.929l.781 1.033c.267.353.414.79.414 1.233v.574h0zm-2.895 1.299c-1.114 0-2.021.87-2.021 1.938 0 1.069.907 1.938 2.021 1.938 1.115 0 2.021-.87 2.021-1.938 0-1.069-.906-1.938-2.02-1.938zm0 3.234c-.76 0-1.38-.582-1.38-1.296 0-.714.62-1.295 1.38-1.295.761 0 1.38.58 1.38 1.295 0 .714-.619 1.296-1.38 1.296z"/>
</svg>
