<?xml version="1.0" encoding="UTF-8"?>
<svg width="24px" height="24px" viewBox="0 0 24 24" version="1.1" xmlns="http://www.w3.org/2000/svg" xmlns:xlink="http://www.w3.org/1999/xlink">
    <title>Group 25</title>
    <g id="Page-1" stroke="none" stroke-width="1" fill="none" fill-rule="evenodd">
        <g id="wt_assets/crops/style" transform="translate(-558.000000, -590.000000)" fill="currentColor" fill-rule="nonzero" stroke="currentColor">
            <g id="Group-25" transform="translate(558.000000, 590.000000)">
                <g id="noun_FAQ_170995" transform="translate(4.000000, 4.000000)">
                    <path d="M16.6483202,3.98112004 C16.6483202,1.92096002 14.9779202,0.250560003 12.9177601,0.250560003 L3.78624004,0.250560003 C1.72608002,0.250560003 0.0556800006,1.92096002 0.0556800006,3.98112004 L0.0556800006,11.2473601 C0.0556800006,13.0848001 1.39200002,14.6160002 3.14592003,14.9222402 L3.14592003,18.0681602 C3.14592003,18.2908802 3.28512004,18.5136002 3.48000004,18.6249602 C3.56352004,18.6806402 3.67488004,18.6806402 3.75840004,18.6806402 C3.89760004,18.6806402 4.00896004,18.6528002 4.12032005,18.5692802 L5.98560007,17.2051202 C8.01792009,15.7296002 10.4121601,14.9500802 12.9177601,14.9500802 C14.9779202,14.9500802 16.6483202,13.2796801 16.6483202,11.2195201 L16.6483202,3.98112004 L16.6483202,3.98112004 Z M15.4233602,11.2473601 C15.4233602,12.6115201 14.3097602,13.7251202 12.9456001,13.7251202 C10.1894401,13.7251202 7.54464008,14.5881602 5.28960006,16.2028802 L4.39872005,16.8432002 L4.39872005,14.3376002 C4.39872005,14.0035202 4.12032005,13.7251202 3.78624004,13.7251202 C2.42208003,13.7251202 1.30848001,12.6115201 1.30848001,11.2473601 L1.30848001,3.98112004 C1.30848001,2.61696003 2.42208003,1.50336002 3.78624004,1.50336002 L12.9456001,1.50336002 C14.3097602,1.50336002 15.4233602,2.61696003 15.4233602,3.98112004 L15.4233602,11.2473601 Z" id="Shape" stroke-width="0.1"></path>
                    <path d="M6.48884794,10.9975157 C6.40477653,10.9855156 6.32885724,10.9386131 6.2782006,10.8673789 C6.22754395,10.7961447 6.20641276,10.7065732 6.21956952,10.6188519 L6.52671754,8.50537668 L5.09197858,6.98631548 C5.00854691,6.89859842 4.97894615,6.76944639 5.01527963,6.65166787 C5.05161311,6.53388935 5.14778933,6.44723058 5.26448315,6.42712514 L7.27984403,6.07928232 L8.21810606,4.18155622 C8.27180538,4.07021657 8.38082969,4 8.5,4 C8.61918215,4 8.72820645,4.07021657 8.78190577,4.18155622 L9.71595536,6.07928232 L11.7355223,6.42712514 C11.852215,6.4472326 11.9483894,6.53389216 11.9847214,6.65167032 C12.0210534,6.76944849 11.991452,6.89859934 11.9080205,6.98631548 L10.4690818,8.50537668 L10.7804317,10.6188519 C10.7976605,10.7408914 10.7484975,10.8628124 10.6529326,10.9350412 C10.5573678,11.00727 10.4313151,11.0177786 10.3260283,10.9622942 L8.5,10.0024212 L6.67397288,10.9622942 C6.61711849,10.993449 6.55254263,11.005735 6.48884794,10.9975157 L6.48884794,10.9975157 Z M6.93483701,10.0860722 L8.35694711,9.33754997 C8.44684537,9.28974252 8.55315585,9.28974252 8.64305411,9.33754997 L10.0609624,10.0860722 L9.82113926,8.43932546 C9.80639776,8.33606148 9.83915721,8.23158098 9.90949459,8.15753167 L11.0286691,6.97310633 L9.45930367,6.70451842 C9.36055679,6.68880044 9.27473803,6.62511746 9.22789485,6.53279835 L8.50000061,5.05336461 L7.77211699,6.53279835 C7.7252738,6.62511746 7.63945505,6.68880044 7.54070816,6.70451842 L5.97133212,6.97310633 L7.09050664,8.15753167 C7.16084402,8.23158098 7.19360347,8.33606148 7.17886196,8.43932546 L6.93483701,10.0860722 L6.93483701,10.0860722 Z" id="Shape" stroke-width="0.3"></path>
                </g>
            </g>
        </g>
    </g>
</svg>