<svg xmlns="http://www.w3.org/2000/svg" width="24" height="24" viewBox="0 0 24 24">
    <g fill="#E1245E">
        <path d="M8.978 4.84c.365 0 .66-.295.66-.66v-2.2C9.638.886 8.752 0 7.658 0H1.98C.886 0 0 .886 0 1.98v10.34c0 1.094.886 1.98 1.98 1.98h5.676c1.094 0 1.98-.886 1.98-1.98v-1.98c0-.365-.295-.66-.66-.66-.365 0-.66.295-.66.66v1.98c0 .365-.295.66-.66.66H1.98c-.365 0-.66-.295-.66-.66V1.98c0-.365.295-.66.66-.66h5.676c.365 0 .66.295.66.66v2.2c0 .175.07.344.194.467.124.124.293.194.468.193z" transform="translate(5 5)"/>
        <path d="M4.248 7.26c0 .365.296.66.66.66h9.066l-2.446 2.42c-.244.258-.24.664.01.917.249.253.654.263.916.022l3.588-3.548c.126-.124.197-.293.197-.47 0-.176-.071-.346-.197-.47l-3.588-3.544c-.262-.24-.667-.23-.917.023s-.253.658-.009.917l2.446 2.42H4.908c-.362 0-.656.291-.66.653z" transform="translate(5 5)"/>
    </g>
</svg>
