<?xml version="1.0" encoding="UTF-8"?>
<svg width="24px" height="24px" viewBox="0 0 24 24" version="1.1" xmlns="http://www.w3.org/2000/svg" xmlns:xlink="http://www.w3.org/1999/xlink">
    <title>ic_menu_guest_dir</title>
    <g id="Page-1" stroke="none" stroke-width="1" fill="none" fill-rule="evenodd">
        <g id="Icons" transform="translate(-53.000000, -67.000000)" fill="currentColor" fill-rule="nonzero" stroke="currentColor" stroke-width="0.5">
            <g id="noun_wifi_2146863-copy" transform="translate(53.000000, 67.000000)">
                <path d="M3.90003883,14.1007771 L8.40001726,14.1007771 L8.40001726,20.7000338 C8.40001726,20.8657006 8.53433119,21 8.70001582,21 L11.7000014,21 C11.8290726,21 11.9436136,20.9172674 11.9844001,20.7948231 L12.8588959,18.1725185 L17.5124736,14.1007771 L20.0999612,14.1007771 C20.5391402,14.1019313 20.9146606,13.7851643 20.9874886,13.352111 C21.0603167,12.9190576 20.8090627,12.4969066 20.3936598,12.3543738 C20.2653553,8.13659498 17.0307501,4.66701253 12.831896,4.24328738 C12.9872314,3.86705191 12.870655,3.43340325 12.5476,3.18574425 C12.224545,2.93808525 11.775455,2.93808525 11.4524,3.18574425 C11.129345,3.43340325 11.0127686,3.86705191 11.168104,4.24328738 C6.96924992,4.66701253 3.73464466,8.13659498 3.60634024,12.3543738 C3.19093732,12.4969066 2.93968331,12.9190576 3.01251136,13.352111 C3.08533942,13.7851643 3.46085979,14.1019313 3.90003883,14.1007771 Z M12.4025981,17.7747633 C12.3622598,17.8096511 12.332184,17.8548635 12.3155985,17.9055485 L11.4837025,20.4000676 L9.00001438,20.4000676 L9.00001438,14.1007771 C9.33138364,14.1007771 9.60001151,14.369376 9.60001151,14.7007095 L9.60001151,16.800473 C9.5999999,16.8874682 9.6377608,16.9701834 9.70350162,17.027168 C9.76924244,17.0841526 9.85648693,17.1097929 9.94260986,17.0974396 L12.0425998,16.7974733 C12.0884263,16.7901501 12.1318927,16.7721695 12.1694992,16.7449793 L12.1694992,16.747079 L15.9938809,14.1007771 L16.6016779,14.1007771 L12.4025981,17.7747633 Z M11.8248008,16.2224381 L11.8080009,16.2248378 L12.5159975,14.1007771 L13.2395941,14.1007771 L11.8248008,16.2224381 Z M13.9604906,14.1007771 L14.9399859,14.1007771 L13.1216946,15.3606352 L13.9604906,14.1007771 Z M11.1441041,16.3205271 L10.2000086,16.454612 L10.2000086,14.7007095 C10.1987652,14.4894573 10.1411861,14.2823606 10.0332094,14.1007771 L11.8839006,14.1007771 L11.1441041,16.3205271 Z M11.7000014,3.90192583 C11.7000014,3.73625906 11.8343154,3.60195961 12,3.60195961 C12.1656846,3.60195961 12.2999986,3.73625906 12.2999986,3.90192583 C12.2999986,4.06759259 12.1656846,4.20189204 12,4.20189204 C11.8343154,4.20189204 11.7000014,4.06759259 11.7000014,3.90192583 Z M12,4.80182447 C16.1890441,4.80689232 19.6280426,8.11568307 19.7942626,12.3009798 L4.20573736,12.3009798 C4.37195739,8.11568307 7.81095591,4.80689232 12,4.80182447 Z M3.90003883,12.9009122 L20.0999612,12.9009122 C20.2656458,12.9009122 20.3999597,13.0352117 20.3999597,13.2008784 C20.3999597,13.3665452 20.2656458,13.5008447 20.0999612,13.5008447 L3.90003883,13.5008447 C3.7343542,13.5008447 3.60004027,13.3665452 3.60004027,13.2008784 C3.60004027,13.0352117 3.7343542,12.9009122 3.90003883,12.9009122 Z" id="Shape-Copy-2"></path>
            </g>
        </g>
    </g>
</svg>