<?xml version="1.0" encoding="UTF-8"?>
<svg width="24px" height="24px" viewBox="0 0 24 24" version="1.1" xmlns="http://www.w3.org/2000/svg" xmlns:xlink="http://www.w3.org/1999/xlink">
    <title>noun_woman guest_2824729 2</title>
    <g id="Page-1" stroke="none" stroke-width="1" fill="none" fill-rule="evenodd">
        <g id="Icons" transform="translate(-53.000000, -67.000000)" fill="currentColor" fill-rule="nonzero">
            <g id="noun_woman-guest_2824729-2" transform="translate(53.000000, 67.000000)">
                <g id="Group" transform="translate(4.000000, 2.000000)">
                    <path d="M9,3.569458 L9,2.5 L10,2.5 C10.5522461,2.5 11,2.0522461 11,1.5 C11,0.9477539 10.5522461,0.5 10,0.5 L6,0.5 C5.4477539,0.5 5,0.9477539 5,1.5 C5,2.0522461 5.4477539,2.5 6,2.5 L7,2.5 L7,3.569458 C3.0600586,4.0640869 0,7.4282227 0,11.5 C0,15.9111328 3.5888672,19.5 8,19.5 C12.4111328,19.5 16,15.9111328 16,11.5 C16,7.4282227 12.9399414,4.0640869 9,3.569458 Z M8,17.5 C4.6914062,17.5 2,14.8085937 2,11.5 C2,8.1914063 4.6914063,5.5 8,5.5 C11.3085937,5.5 14,8.1914063 14,11.5 C14,14.8085937 11.3085938,17.5 8,17.5 Z" id="Shape"></path>
                    <path d="M9.2929688,8.7929688 L7.2929688,10.7929688 C6.9023438,11.1835938 6.9023438,11.8164063 7.2929688,12.2070313 C7.4882813,12.4023438 7.7441406,12.5 8.00000005,12.5 C8.2558594,12.5 8.5117188,12.4023437 8.7070313,12.2070312 L10.7070313,10.2070312 C11.0976563,9.8164062 11.0976563,9.1835937 10.7070313,8.7929687 C10.3164063,8.4023437 9.6835938,8.4023438 9.2929688,8.7929688 Z" id="Path"></path>
                </g>
            </g>
        </g>
    </g>
</svg>