<?xml version="1.0" encoding="UTF-8"?>
<svg width="24px" height="24px" viewBox="0 0 24 24" version="1.1" xmlns="http://www.w3.org/2000/svg" xmlns:xlink="http://www.w3.org/1999/xlink">
    <title>ic_menu_guest_dir</title>
    <g id="Page-1" stroke="none" stroke-width="1" fill="none" fill-rule="evenodd">
        <g id="Icons" transform="translate(-53.000000, -67.000000)" fill="currentColor" fill-rule="nonzero">
            <g id="noun_wifi_2146863-copy" transform="translate(53.000000, 67.000000)">
                <g id="noun_Meeting_317834-Copy" transform="translate(4.000000, 4.000000)">
                    <path d="M11.4740255,9.50531387 C11.4740255,11.1619592 10.1309196,12.505165 8.47395105,12.505165 C6.81713135,12.505165 5.47402547,11.1619592 5.47402547,9.50531387 C5.47402547,7.84822205 6.81713135,6.50516504 8.47395105,6.50516504 C10.1309196,6.50516504 11.4740255,7.84822205 11.4740255,9.50531387 Z M1.25499184,12.4523991 C0.561893568,12.4523991 0,13.0090574 0,13.6953755 C0,14.3812541 0.561893568,14.9376926 1.25499184,14.9376926 C1.94831211,14.9376926 2.50998368,14.3812541 2.50998368,13.6953755 C2.50998368,13.0090574 1.94831211,12.4523991 1.25499184,12.4523991 Z M15.7452302,12.4523991 C15.0519099,12.4523991 14.4900163,13.0090574 14.4900163,13.6953755 C14.4900163,14.3812541 15.0519099,14.9376926 15.7452302,14.9376926 C16.4385504,14.9376926 17,14.3812541 17,13.6953755 C17,13.0090574 16.4385504,12.4523991 15.7452302,12.4523991 Z M6.7418348,14.46828 C4.60481881,13.7375699 3.16911525,11.743006 3.16911525,9.50538481 C3.16911525,9.22892366 3.19175971,8.94872655 3.23616063,8.67182587 L3.23882468,8.64677295 C3.23882468,8.64677295 3.24126673,8.59095329 3.24126673,8.56194465 C3.24126673,8.14461578 2.89538361,7.80112709 2.45958864,7.79629231 C1.90724127,7.79629231 1.71742736,8.2632875 1.69544891,8.49821354 C1.64527587,8.83203269 1.61996735,9.17090637 1.61996735,9.50538481 C1.61996735,10.5028865 1.845746,11.4612705 2.2489063,12.330431 L3.0889716,12.5165698 C3.12515834,12.5244812 3.15601698,12.5471167 3.17444336,12.5789823 C3.19286974,12.6108478 3.19664381,12.648647 3.18532158,12.6835892 L2.92424421,13.4804478 C3.72612471,14.5772822 4.857016,15.43963 6.20791381,15.9083832 C6.2509827,15.9272828 6.36376102,15.969697 6.50739798,15.969697 C6.50739798,15.969697 6.50739798,15.969697 6.50739798,15.969697 C6.72052236,15.969697 7.09992817,15.8747596 7.2468952,15.2396461 C7.34524323,14.813307 6.96272935,14.5498118 6.7418348,14.46828 Z M13.7303167,12.6835892 C13.7189944,12.6488667 13.7229905,12.6108478 13.7414169,12.5789823 C13.7596213,12.546897 13.7907019,12.5244812 13.8268887,12.5165698 L14.7015867,12.3227393 C15.103415,11.4551172 15.3280836,10.4989308 15.3280836,9.50538481 C15.3280836,9.11816339 15.2927849,8.72193171 15.2221874,8.32328264 C15.1780085,8.1017621 14.9551159,7.67476368 14.4456154,7.70728852 C14.0124845,7.7343193 13.6859158,8.06330368 13.6859158,8.47250134 C13.6859158,8.52788147 13.6925759,8.58370113 13.7038981,8.63095006 C13.7536272,8.92477244 13.7787137,9.21881458 13.7787137,9.50538481 C13.7787137,11.7339957 12.3507803,13.7257027 10.2128763,14.4667416 C10.0139602,14.5498118 9.68250735,14.7981434 9.70182174,15.200968 C9.72224616,15.6244502 10.0619132,15.9562915 10.4750637,15.9562915 C10.5598694,15.9562915 10.6431211,15.9426662 10.7234868,15.9151959 L10.7756579,15.9149761 L10.8060725,15.8848687 C12.1150114,15.4158956 13.212602,14.5731067 14.0000522,13.5074786 L13.7303167,12.6835892 Z M8.47369246,0 C7.78059419,0 7.21892262,0.556218735 7.21892262,1.24253683 C7.21892262,1.92863517 7.78059419,2.48485391 8.47369246,2.48485391 C9.16679073,2.48485391 9.7289063,1.92863517 9.7289063,1.24253683 C9.7289063,0.556438497 9.16679073,0 8.47369246,0 Z M12.9439765,4.36558087 L12.9268821,4.34931844 C11.8676983,3.45246793 10.5600914,2.90130373 9.18521711,2.75867791 L8.56760039,3.42345929 C8.54273588,3.4502703 8.50765916,3.46543391 8.4708064,3.46543391 C8.47058439,3.46543391 8.47036239,3.46543391 8.47014039,3.46543391 C8.43306562,3.46521415 8.3979889,3.44961102 8.37312439,3.42258024 L7.76816193,2.75823838 C6.39772772,2.8991061 5.09433888,3.44521577 4.04558929,4.3291003 C3.92726086,4.4174448 3.74299706,4.64423964 3.80205028,4.93344701 C3.89151812,5.37187308 4.19344434,5.65536662 4.57107411,5.65558639 L4.57129611,5.65558639 C4.80018283,5.65558639 5.02418544,5.50900484 5.08168462,5.46834879 C6.03164218,4.68533521 7.23623898,4.25416131 8.47347045,4.25416131 C10.3263206,4.25416131 11.8967809,5.49120408 11.9229775,5.51142223 C12.0559582,5.60570031 12.2115834,5.65558639 12.3727587,5.65558639 C12.7934574,5.65558639 13.1331244,5.32220677 13.1462227,4.89652692 C13.1557689,4.59699071 12.9659549,4.38843616 12.9439765,4.36558087 Z" id="Shape"></path>
                </g>
            </g>
        </g>
    </g>
</svg>