<?xml version="1.0" encoding="UTF-8"?>
<svg width="24px" height="24px" viewBox="0 0 24 24" version="1.1" xmlns="http://www.w3.org/2000/svg" xmlns:xlink="http://www.w3.org/1999/xlink">
    <title>ic_menu_guest_dir</title>
    <g id="Page-1" stroke="none" stroke-width="1" fill="none" fill-rule="evenodd">
        <g id="Icons" transform="translate(-53.000000, -67.000000)" fill="currentColor" fill-rule="nonzero">
            <g id="noun_wifi_2146863-copy" transform="translate(53.000000, 67.000000)">
                <g id="Group" transform="translate(4.000000, 3.000000)">
                    <path d="M11.1519999,4.59199996 L0.655999994,4.59199996 C0.293887997,4.59199996 0,4.88588796 0,5.24799995 L0,16.3999999 C0,16.7621119 0.293887997,17.0559999 0.655999994,17.0559999 L11.1519999,17.0559999 C11.5141119,17.0559999 11.8079999,16.7621119 11.8079999,16.3999999 L11.8079999,5.24799995 C11.8079999,4.88588796 11.5141119,4.59199996 11.1519999,4.59199996 Z M1.31199999,5.90399995 L5.24799995,5.90399995 L5.24799995,15.7439999 L1.31199999,15.7439999 L1.31199999,5.90399995 Z M10.4959999,15.7439999 L6.55999994,15.7439999 L6.55999994,5.90399995 L10.4959999,5.90399995 L10.4959999,15.7439999 Z" id="Shape"></path>
                    <path d="M3.27999997,3.93599997 L8.52799993,3.93599997 C8.89011192,3.93599997 9.18399992,3.64211197 9.18399992,3.27999997 C9.18399992,1.47140799 7.71259193,0 5.90399995,0 C4.09540796,0 2.62399998,1.47140799 2.62399998,3.27999997 C2.62399998,3.64211197 2.91788797,3.93599997 3.27999997,3.93599997 Z M5.90399995,1.31199999 C6.75909594,1.31199999 7.48889593,1.86041598 7.75949593,2.62399998 L6.55999994,2.62399998 C6.55999994,2.26188798 6.26611195,1.96799998 5.90399995,1.96799998 C5.54188795,1.96799998 5.24799995,2.26188798 5.24799995,2.62399998 L4.04850396,2.62399998 C4.31910396,1.86041598 5.04890396,1.31199999 5.90399995,1.31199999 Z" id="Shape"></path>
                    <path d="M16.2077919,8.06420793 L14.8957919,6.75220794 C14.6396239,6.49603994 14.2243759,6.49603994 13.9682079,6.75220794 L12.6562079,8.06420793 C12.4000399,8.32037593 12.4000399,8.73562392 12.6562079,8.99179192 C12.9123759,9.24795992 13.3276239,9.24795992 13.5837919,8.99179192 L13.7759999,8.79958392 L13.7759999,9.83999991 C13.7759999,10.2021119 14.0698879,10.4959999 14.4319999,10.4959999 C14.7941119,10.4959999 15.0879999,10.2021119 15.0879999,9.83999991 L15.0879999,8.79958392 L15.2802079,8.99179192 C15.4084559,9.12003992 15.5760639,9.18399992 15.7439999,9.18399992 C15.9119359,9.18399992 16.0795439,9.12003992 16.2077919,8.99179192 C16.4639599,8.73562392 16.4639599,8.32037593 16.2077919,8.06420793 Z" id="Path"></path>
                </g>
            </g>
        </g>
    </g>
</svg>