<?xml version="1.0" encoding="UTF-8"?>
<svg width="24px" height="24px" viewBox="0 0 24 24" version="1.1" xmlns="http://www.w3.org/2000/svg" xmlns:xlink="http://www.w3.org/1999/xlink">
    <title>ic_menu_guest_dir</title>
    <g id="Page-1" stroke="none" stroke-width="1" fill="none" fill-rule="evenodd">
        <g id="Icons" transform="translate(-53.000000, -67.000000)" fill="currentColor" fill-rule="nonzero" stroke="currentColor" stroke-width="0.3">
            <g id="noun_wifi_2146863-copy" transform="translate(53.000000, 67.000000)">
                <g id="Group" transform="translate(3.000000, 3.000000)">
                    <g transform="translate(7.326000, 3.930400)">
                        <path d="M1.32354453,5.59340035 C0.918611584,5.59340035 0.590944495,5.26573326 0.590944495,4.86080031 L0.590944495,0.831500096 C0.590944495,0.426567147 0.918611584,0.0989000578 1.32354453,0.0989000578 C1.72847748,0.0989000578 2.05614457,0.426567147 2.05614457,0.831500096 L2.05614457,4.86080031 C2.05614457,5.26573326 1.72847895,5.59340035 1.32354453,5.59340035 Z" id="Path"></path>
                        <circle id="Oval" cx="1.32401926" cy="8.02646324" r="1"></circle>
                    </g>
                    <path d="M8.79120046,17.5826251 C3.94344828,17.5826251 0,13.6391768 0,8.79142464 C0,3.94367245 3.94344828,0.000224175612 8.79120046,0.000224175612 C13.6389526,0.000224175612 17.5824009,3.94367245 17.5824009,8.79142464 C17.5824009,13.6391768 13.6389526,17.5826251 8.79120046,17.5826251 Z M8.79120046,1.46542425 C4.75188414,1.46542425 1.46520008,4.75210832 1.46520008,8.79142464 C1.46520008,12.830741 4.75188414,16.117425 8.79120046,16.117425 C12.8305168,16.117425 16.1172008,12.830741 16.1172008,8.79142464 C16.1172008,4.75210832 12.8305168,1.46542425 8.79120046,1.46542425 Z" id="Shape"></path>
                </g>
            </g>
        </g>
    </g>
</svg>