<?xml version="1.0" encoding="UTF-8"?>
<svg width="24px" height="24px" viewBox="0 0 24 24" version="1.1" xmlns="http://www.w3.org/2000/svg" xmlns:xlink="http://www.w3.org/1999/xlink">
    <title>ic_menu_guest_dir</title>
    <g id="Page-1" stroke="none" stroke-width="1" fill="none" fill-rule="evenodd">
        <g id="Icons" transform="translate(-59.000000, -61.000000)" fill="currentColor" fill-rule="nonzero" stroke="currentColor" stroke-width="0.5">
            <g id="noun_wifi_2146863-copy" transform="translate(59.000000, 61.000000)">
                <path d="M21.4141936,10.8737117 L21.4141936,9.57233329 C21.4141936,8.82437187 20.8454554,8.21569601 20.1464703,8.21569601 C19.9339301,8.21569601 19.7337846,8.27261062 19.557616,8.37195248 C19.4107072,7.59046318 18.7665843,7 17.9962784,7 C17.1180767,7 16.4032425,7.76762283 16.4032425,8.71095658 L16.4032425,9.95666211 L8.59675746,9.95666211 L8.59675746,8.71095658 C8.59675746,7.76762283 7.88192328,7 7.00372165,7 C6.23341568,7 5.58929278,7.59046318 5.44238399,8.37195248 C5.26621536,8.27261062 5.06606992,8.21569601 4.85352968,8.21569601 C4.15454458,8.21569601 3.58580641,8.82416491 3.58580641,9.57233329 L3.58580641,10.8737117 C3.24484798,11.0045118 3,11.3406184 3,11.737158 L3,12.1707438 C3,12.5674904 3.24484798,12.903597 3.58580641,13.0343971 L3.58580641,14.4278737 C3.58580641,15.1756281 4.15454458,15.784304 4.85352968,15.784304 C5.06606992,15.784304 5.26621536,15.7273894 5.44238399,15.6280475 C5.58929278,16.4095368 6.23341568,17 7.00372165,17 C7.88192328,17 8.59675746,16.2325841 8.59675746,15.2892504 L8.59675746,14.0435448 L16.4032425,14.0435448 L16.4032425,15.2892504 C16.4032425,16.2325841 17.1180767,17 17.9962784,17 C18.7665843,17 19.4107072,16.4095368 19.557616,15.6280475 C19.7337846,15.7273894 19.9339301,15.784304 20.1464703,15.784304 C20.8454554,15.784304 21.4141936,15.1758351 21.4141936,14.4278737 L21.4141936,13.0343971 C21.755152,12.903597 22,12.5674904 22,12.1707438 L22,11.737158 C21.9997968,11.3406184 21.755152,11.0045118 21.4141936,10.8737117 Z M5.41820398,14.4278737 C5.41820398,14.7807442 5.16482188,15.0680078 4.85352968,15.0680078 C4.54223748,15.0680078 4.28885538,14.7807442 4.28885538,14.4278737 L4.28885538,9.57233329 C4.28885538,9.21925576 4.54203429,8.93199222 4.85332649,8.93199222 C5.16461869,8.93199222 5.41800079,9.21925576 5.41800079,9.57233329 L5.41800079,14.4278737 L5.41820398,14.4278737 Z M7.8935053,15.2892504 C7.8935053,15.8374933 7.49443357,16.2837038 7.00372165,16.2837038 C6.51300972,16.2837038 6.11393799,15.8377002 6.11393799,15.2892504 L6.11393799,14.5731611 C6.11881463,14.5253529 6.12145615,14.4769237 6.12145615,14.4278737 L6.12145615,9.57233329 C6.12145615,9.52328325 6.11861144,9.47485409 6.11393799,9.42704582 L6.11393799,8.71095658 C6.11393799,8.16250673 6.51300972,7.7162962 7.00372165,7.7162962 C7.49443357,7.7162962 7.8935053,8.16229976 7.8935053,8.71095658 L7.8935053,15.2892504 Z M16.4030393,13.3762987 L8.59675746,13.3762987 L8.59675746,10.6239083 L16.4032425,10.6239083 L16.4032425,13.3762987 L16.4030393,13.3762987 Z M18.8858588,15.2892504 C18.8858588,15.8374933 18.4867871,16.2837038 17.9960752,16.2837038 C17.5053632,16.2837038 17.1062915,15.8377002 17.1062915,15.2892504 L17.1062915,8.71095658 C17.1062915,8.16250673 17.5053632,7.7162962 17.9960752,7.7162962 C18.4867871,7.7162962 18.8858588,8.16229976 18.8858588,8.71095658 L18.8858588,9.42704582 C18.8809822,9.47485409 18.8783407,9.52328325 18.8783407,9.57233329 L18.8783407,14.4278737 C18.8783407,14.4769237 18.8811854,14.5253529 18.8858588,14.5731611 L18.8858588,15.2892504 Z M20.7109414,14.4278737 C20.7109414,14.7807442 20.4577625,15.0680078 20.1464703,15.0680078 C19.8351781,15.0680078 19.581796,14.7807442 19.581796,14.4278737 L19.581796,9.57233329 C19.581796,9.21925576 19.8351781,8.93199222 20.1464703,8.93199222 C20.4577625,8.93199222 20.7109414,9.21925576 20.7109414,9.57233329 L20.7109414,14.4278737 Z" id="Shape-Copy-2"></path>
            </g>
        </g>
    </g>
</svg>