<?xml version="1.0" encoding="UTF-8"?>
<svg width="24px" height="24px" viewBox="0 0 24 24" version="1.1" xmlns="http://www.w3.org/2000/svg" xmlns:xlink="http://www.w3.org/1999/xlink">
    <title>ic_menu_guest_dir</title>
    <g id="Page-1" stroke="none" stroke-width="1" fill="none" fill-rule="evenodd">
        <g id="Icons" transform="translate(-53.000000, -67.000000)" fill="currentColor" fill-rule="nonzero">
            <g id="noun_wifi_2146863-copy" transform="translate(53.000000, 67.000000)">
                <g id="Group" transform="translate(5.000000, 3.000000)">
                    <path d="M7.03999973,0 C3.16026252,0 0.0155079239,3.25558738 0.0155079239,7.2714466 C0.0155079239,12.7938245 7.03999973,17.5999993 7.03999973,17.5999993 C7.03999973,17.5999993 14.0644915,12.7938245 14.0644915,7.2714466 C14.0644915,3.25558738 10.9197369,0 7.03999973,0 Z M7.03999973,12.9229714 C4.02475456,12.9229714 1.58067919,10.3929715 1.58067919,7.2714466 C1.58067919,4.15019672 4.02478777,1.61992181 7.03999973,1.61992181 C10.0552117,1.61992181 12.4998848,4.15019672 12.4998848,7.2714466 C12.4998848,10.3930059 10.0552449,12.9229714 7.03999973,12.9229714 Z" id="Shape"></path>
                    <path d="M7.70187016,4.40372716 L5.50000012,4.4000001 L5.50000012,9.9000001 L6.67435874,9.9000001 L6.67435874,8.52078972 L7.70187016,8.52078972 C8.91587273,8.52078972 9.90000021,7.59930774 9.90000021,6.46249664 C9.90000021,5.32523716 8.91590265,4.40372716 7.70187016,4.40372716 Z M8.42572387,7.14017808 C8.23247082,7.32140315 7.97539848,7.42088498 7.70190008,7.42088498 L6.67438866,7.42088498 L6.67438866,5.50178239 L7.69989545,5.50363191 L7.70088281,5.50363191 L7.70187016,5.50363191 C7.97539848,5.50363191 8.2324409,5.60311374 8.42569395,5.78433881 C8.61915644,5.96556388 8.72561168,6.20608572 8.72561168,6.46249664 C8.7256416,6.71843116 8.61918636,6.95895301 8.42572387,7.14017808 Z" id="Shape"></path>
                </g>
            </g>
        </g>
    </g>
</svg>