<?xml version="1.0" encoding="UTF-8"?>
<svg width="24px" height="24px" viewBox="0 0 24 24" version="1.1" xmlns="http://www.w3.org/2000/svg" xmlns:xlink="http://www.w3.org/1999/xlink">
    <title>ic_menu_guest_dir</title>
    <g id="Page-1" stroke="none" stroke-width="1" fill="none" fill-rule="evenodd">
        <g id="Icons" transform="translate(-53.000000, -67.000000)" fill="currentColor" fill-rule="nonzero">
            <g id="noun_wifi_2146863-copy" transform="translate(53.000000, 67.000000)">
                <g id="Group" transform="translate(4.000000, 5.000000)">
                    <path d="M16.0499996,11.8769997 L14.7659997,11.8769997 L13.4819997,11.8769997 L9.62999978,11.8769997 L14.0585157,11.8769997 C13.7927277,9.51572378 12.1171077,7.59614383 9.88166378,6.97468784 C10.8741958,6.42770385 11.5559997,5.38381188 11.5559997,4.17299991 C11.5559997,2.40236395 10.1153518,0.962999978 8.34599981,0.962999978 C6.57664785,0.962999978 5.13599988,2.40236395 5.13599988,4.17299991 C5.13599988,5.38381188 5.81780387,6.42770385 6.81033585,6.97468784 C4.5748919,7.59614383 2.89798793,9.51572378 2.63348394,11.8769997 L0.641999985,11.8769997 C0.287615993,11.8769997 0,12.1646157 0,12.5189997 C0,12.8733837 0.287615993,13.1609997 0.641999985,13.1609997 L2.56799994,13.1609997 L14.1239997,13.1609997 L16.0499996,13.1609997 C16.4043836,13.1609997 16.6919996,12.8733837 16.6919996,12.5189997 C16.6919996,12.1646157 16.4043836,11.8769997 16.0499996,11.8769997 Z M8.34599981,2.24699995 C9.40786779,2.24699995 10.2719998,3.11113193 10.2719998,4.17299991 C10.2719998,5.23486788 9.40786779,6.09899986 8.34599981,6.09899986 C7.28413183,6.09899986 6.41999985,5.23486788 6.41999985,4.17299991 C6.41999985,3.11113193 7.28413183,2.24699995 8.34599981,2.24699995 Z M8.34599981,8.02499982 C10.6032718,8.02499982 12.4599357,9.70575578 12.7745157,11.8769997 L3.91748391,11.8769997 C4.2320639,9.70575578 6.08872786,8.02499982 8.34599981,8.02499982 Z" id="Shape"></path>
                </g>
            </g>
        </g>
    </g>
</svg>