<?xml version="1.0" encoding="UTF-8"?>
<svg width="24px" height="24px" viewBox="0 0 24 24" version="1.1" xmlns="http://www.w3.org/2000/svg" xmlns:xlink="http://www.w3.org/1999/xlink">
    <title>ic_menu_guest_dir</title>
    <g id="Page-1" stroke="none" stroke-width="1" fill="none" fill-rule="evenodd">
        <g id="Icons" transform="translate(-59.000000, -61.000000)" fill="currentColor" fill-rule="nonzero">
            <g id="noun_wifi_2146863-copy" transform="translate(59.000000, 61.000000)">
                <g id="Group-9-Copy" transform="translate(2.000000, 6.000000)">
                    <path d="M15.8798577,8.74067372 L9.78500856,2.94429287 L10.840469,1.94056236 C11.3073376,1.49657572 11.3073376,0.776976615 10.840469,0.332989978 C10.3736003,-0.110996659 9.61691477,-0.110996659 9.15004611,0.332989978 L8.09458569,1.33672049 L7.59425636,1.81252784 L7.08338822,2.29835746 C6.70847056,2.65515033 6.70847056,3.23343541 7.08338822,3.58997773 L9.38611514,5.7798441 L6,9 L16,9 L15.8798577,8.74067372 Z" id="Path"></path>
                    <circle id="Oval" cx="14" cy="4" r="2"></circle>
                    <path d="M0.517687662,11.2 C0.981535807,11.2 1.19456428,11.4421 1.56186368,11.9059 C1.94805867,12.3934 2.42873167,13 3.36859362,13 C4.30897325,13 4.78912856,12.3934 5.17532355,11.9059 C5.54262295,11.4421 5.75565142,11.2 6.21924072,11.2 C6.68308887,11.2 6.89637619,11.4421 7.26367558,11.9059 C7.64987058,12.3934 8.13080242,13 9.07092321,13 C10.0115617,13 10.4919758,12.3934 10.8781708,11.9059 C11.2457291,11.4421 11.4592752,11.2 11.9233822,11.2 C12.3872304,11.2 12.6005177,11.4421 12.9678171,11.9059 C13.3540121,12.3934 13.8349439,13 14.7750647,13 C15.715962,13 16.196635,12.3934 16.5830889,11.9059 C16.950906,11.4421 17.1644521,11.2 17.6288179,11.2 C18.0931838,11.2 18.3064711,11.4421 18.6742882,11.9059 C19.0604832,12.3934 19.5416739,13 20.4823123,13 C20.7680759,13 21,12.7312 21,12.4 C21,12.0688 20.7680759,11.8 20.4823123,11.8 C20.0179465,11.8 19.8044003,11.5579 19.4365833,11.0938 C19.0503883,10.6063 18.5691976,10 17.6288179,10 C16.6879206,10 16.2072476,10.6066 15.8207938,11.0941 C15.4529767,11.5579 15.2394305,11.8 14.7750647,11.8 C14.3112166,11.8 14.0979292,11.5579 13.7306299,11.0941 C13.3444349,10.6066 12.863503,10 11.9233822,10 C10.9827437,10 10.5020708,10.6066 10.1158758,11.0941 C9.74831752,11.5579 9.5350302,11.8 9.07092321,11.8 C8.60707506,11.8 8.39378775,11.5579 8.02648835,11.0941 C7.64029336,10.6066 7.15936152,10 6.21924072,10 C5.27911993,10 4.79870578,10.6066 4.41251079,11.0941 C4.04521139,11.5579 3.83218292,11.8 3.36859362,11.8 C2.90500431,11.8 2.69197584,11.5579 2.32467645,11.0944 C1.93848145,10.6069 1.45780846,10 0.517687662,10 C0.231924072,10 0,10.2688 0,10.6 C0,10.9312 0.231924072,11.2 0.517687662,11.2 Z" id="Path"></path>
                </g>
            </g>
        </g>
    </g>
</svg>