<?xml version="1.0" encoding="UTF-8"?>
<svg width="24px" height="24px" viewBox="0 0 24 24" version="1.1" xmlns="http://www.w3.org/2000/svg" xmlns:xlink="http://www.w3.org/1999/xlink">
    <title>ic_menu_guest_dir</title>
    <g id="Page-1" stroke="none" stroke-width="1" fill="none" fill-rule="evenodd">
        <g id="Icons" transform="translate(-53.000000, -67.000000)" fill="currentColor" fill-rule="nonzero">
            <g id="noun_wifi_2146863-copy" transform="translate(53.000000, 67.000000)">
                <g id="Group" transform="translate(4.000000, 6.000000)">
                    <path d="M15.5666667,3.03157895 C13.55,1.12105263 10.8666667,0.0631578947 8,0.0631578947 C8,0.0631578947 8,0.0631578947 8,0.0631578947 C5.13333333,0.0631578947 2.45,1.12105263 0.433333333,3.03157895 C-0.0333333333,3.47368421 -0.0333333333,4.16842105 0.433333333,4.61052632 C0.666666667,4.83157895 0.966666667,4.94210526 1.26666667,4.94210526 C1.56666667,4.94210526 1.86666667,4.83157895 2.1,4.61052632 C3.66666667,3.11052632 5.76666667,2.28947368 8,2.28947368 C8,2.28947368 8,2.28947368 8,2.28947368 C10.2333333,2.28947368 12.3333333,3.11052632 13.9,4.61052632 C14.3666667,5.05263158 15.1,5.05263158 15.5666667,4.61052632 C16.0333333,4.16842105 16.0333333,3.45789474 15.5666667,3.03157895 Z" id="Path"></path>
                    <path d="M3.56666667,6.01578947 C3.1,6.45789474 3.1,7.15263158 3.56666667,7.59473684 C3.8,7.81578947 4.1,7.92631579 4.4,7.92631579 C4.7,7.92631579 5,7.81578947 5.23333333,7.59473684 C6.76666667,6.14210526 9.25,6.14210526 10.7666667,7.57894737 C11.2166667,8.02105263 11.9666667,8.02105263 12.4333333,7.57894737 C12.9,7.13684211 12.9,6.44210526 12.4333333,6 C9.98333333,3.69473684 6.01666667,3.69473684 3.56666667,6.01578947 Z" id="Path"></path>
                    <ellipse id="Oval" cx="8.01666667" cy="10.2" rx="1.83333333" ry="1.73684211"></ellipse>
                </g>
            </g>
        </g>
    </g>
</svg>