<svg xmlns="http://www.w3.org/2000/svg" width="32" height="32" viewBox="0 0 32 32">
    <g fill="#FFF" fill-rule="evenodd" transform="translate(4 4)">
        <circle cx="5" cy="19" r="5" opacity=".1"/>
        <path fill-rule="nonzero" d="M11.596 11.526L11.1 9.682l-.002-.004c.018-.056.03-.115.03-.176v-.494c0-.33-.269-.597-.6-.597H4.327c-.33 0-.599.268-.599.597v.494c0 .057.011.111.026.163l-.007.021-.487 1.843c-.024.092-.036.187-.036.282v9.021c0 .343.16.646.406.85l.263.9c.083.282.3.465.553.465h5.966c.253 0 .47-.183.554-.466l.262-.9c.246-.202.407-.506.407-.849v-9.02c0-.095-.013-.192-.038-.286zm-7.13-2.377h5.925v.212H4.465v-.212zm-.066.95h6.049l.31 1.155H4.095L4.4 10.1zm5.875 12.21H4.58l-.108-.37h5.91l-.108.37zm.62-1.477c0 .178-.126.327-.294.361-.024.005-.049.008-.074.008H4.33c-.026 0-.05-.003-.075-.008-.168-.034-.294-.183-.294-.361v-.817h6.935v.817zm0-1.555H3.962v-7.285h6.935v7.285zm10.116-9.04l-.9-1.187c-.14-.186-.218-.408-.225-.653l-.354-6.11c.198-.1.335-.297.335-.526 0-.023-.002-.046-.007-.07l-.143-.75c-.096-.5-.56-.864-1.105-.864h-2.088c-.545 0-1.01.363-1.106.864l-.143.75c-.004.023-.006.047-.006.07 0 .229.136.426.334.526l-.354 6.122c-.006.233-.084.455-.225.64l-.9 1.187c-.404.533-.626 1.194-.626 1.863v10.086c0 .475.387.862.863.862h6.414c.475 0 .862-.387.862-.862V12.099c0-.67-.222-1.33-.626-1.863zM16.143 1.08c.03-.151.193-.265.38-.265h2.09c.187 0 .35.114.38.265l.102.539h-.418v-.33c0-.137-.11-.247-.246-.247s-.246.11-.246.246v.33h-.371v-.33c0-.136-.11-.246-.246-.246s-.246.11-.246.246v.33h-.372v-.33c0-.136-.11-.246-.246-.246s-.246.11-.246.246v.33h-.418l.103-.538zm2.811 3.984l.097 1.68h-2.967l.098-1.68h2.772zm-2.73-.738l.114-1.97h2.46l.113 1.97h-2.687zM20.9 22.185c0 .068-.056.124-.124.124H14.36c-.069 0-.125-.056-.125-.124V20.19H20.9v1.994zm0-2.732h-6.663v-5.958H20.9v5.958zm0-6.696h-6.663V12.1c0-.509.17-1.012.476-1.417l.9-1.186c.235-.31.364-.679.374-1.056l.056-.959h3.052l.055.948c.01.388.14.757.375 1.067l.899 1.186c.307.405.476.908.476 1.417v.658zm-3.331 1.491c-1.283 0-2.327.999-2.327 2.226 0 1.228 1.044 2.226 2.327 2.226 1.282 0 2.326-.998 2.326-2.226 0-1.227-1.044-2.226-2.326-2.226zm0 3.714c-.876 0-1.589-.667-1.589-1.488 0-.82.713-1.488 1.589-1.488.875 0 1.588.668 1.588 1.488s-.713 1.488-1.588 1.488z"/>
    </g>
</svg>
