<svg xmlns="http://www.w3.org/2000/svg" width="32" height="32" viewBox="0 0 32 32">
    <g fill="#FFF" fill-rule="evenodd" transform="translate(4 7)">
        <circle cx="14" cy="6" r="5" opacity=".1"/>
        <path fill-rule="nonzero" d="M20.852 4.834l-.518-1.282c-.298-.737-1.111-1.107-1.813-.823-.213.086-.392.223-.529.393-.459-.711-1.34-1.032-2.114-.72-.881.357-1.293 1.403-.918 2.333l.496 1.228L7.62 9.129l-.496-1.228c-.376-.93-1.4-1.396-2.28-1.04-.774.313-1.186 1.156-1.022 1.986-.216-.027-.44-.002-.653.084-.702.284-1.03 1.114-.733 1.852l.519 1.282c-.29.268-.403.698-.245 1.089l.173.427c.158.391.538.623.932.614l.555 1.373c.298.737 1.11 1.107 1.813.823.213-.086.391-.223.529-.393.458.71 1.34 1.032 2.113.72.882-.357 1.294-1.403.918-2.333l-.496-1.228 7.837-3.166.496 1.228c.376.93 1.399 1.396 2.28 1.04.774-.313 1.185-1.156 1.021-1.986.217.027.44.002.654-.085.701-.283 1.03-1.114.732-1.85l-.555-1.374c.29-.267.403-.698.245-1.089l-.173-.427c-.158-.391-.538-.623-.932-.614zM6.209 14.825c.14.348 0 .734-.312.86s-.68-.054-.821-.402l-1.934-4.785c-.14-.348 0-.734.312-.86.312-.127.681.054.822.402l1.933 4.785zm2.828-.155c.219.54-.004 1.142-.497 1.341-.493.2-1.07-.079-1.29-.62l-.284-.705c-.015-.049-.031-.098-.05-.146L4.981 9.754c-.02-.048-.042-.095-.066-.14l-.285-.706c-.218-.54.005-1.142.497-1.34.493-.2 1.071.078 1.29.619l2.62 6.483zm7.781-5.337L8.981 12.5 7.885 9.787l7.837-3.166 1.096 2.712zm3.254.879c.218.54-.004 1.142-.497 1.34-.493.2-1.07-.078-1.29-.619L15.667 4.45c-.218-.54.005-1.142.497-1.341.493-.2 1.071.078 1.29.62l.285.705c.014.05.03.098.05.146l1.934 4.786c.02.048.041.095.065.14l.285.706zm1.49-1.59c.14.348 0 .734-.312.86-.313.127-.682-.054-.822-.402l-1.934-4.785c-.14-.348 0-.734.312-.86.313-.127.681.054.822.402l1.933 4.786z"/>
    </g>
</svg>
