<svg xmlns="http://www.w3.org/2000/svg" width="32" height="32" viewBox="0 0 32 32">
    <g fill="#FFF" fill-rule="evenodd" transform="translate(4 4)">
        <circle cx="5" cy="6" r="5" opacity=".1"/>
        <g fill-rule="nonzero">
            <path d="M19.451 9.133l-.694.26c.17.46.3.934.385 1.417l.73-.13c-.094-.527-.234-1.045-.42-1.547zM15.368 4.42l-.355.65c1.334.729 2.438 1.814 3.19 3.135l.644-.367c-.82-1.44-2.025-2.624-3.479-3.419z" transform="translate(1)"/>
            <path d="M1.112 14.079h5.557v8.151c0 .205.166.37.37.37h3.706c.159 0 .3-.102.35-.253l1.08-3.239 5.748-5.029h3.196c.542.001 1.006-.39 1.096-.925.09-.535-.22-1.056-.734-1.232-.158-5.21-4.153-9.495-9.339-10.018.192-.465.048-1-.35-1.307-.4-.305-.954-.305-1.353 0-.4.306-.543.842-.351 1.307-5.186.523-9.18 4.808-9.34 10.018-.512.176-.823.697-.733 1.232.09.535.554.926 1.097.925zm10.5 4.538c-.05.043-.087.099-.107.161l-1.028 3.082H7.41v-7.781c.41 0 .741.332.741.741v2.594c0 .107.047.21.128.28.081.07.189.102.295.086l2.594-.37c.056-.01.11-.031.156-.065v.003l4.723-3.269h.751l-5.186 4.538zM10.9 16.7l-.021.003.874-2.624h.894l-1.747 2.62zm2.637-2.621h1.21L12.5 15.635l1.036-1.556zm-3.478 2.742l-1.166.165V14.82c-.002-.26-.073-.517-.206-.741h2.286l-.914 2.742zm.687-15.339c0-.205.165-.37.37-.37s.37.165.37.37-.165.37-.37.37-.37-.165-.37-.37zm.37 1.112c5.173.006 9.42 4.093 9.626 9.262H1.489c.205-5.17 4.453-9.256 9.626-9.262zM1.112 12.597h20.007c.204 0 .37.166.37.37 0 .205-.166.371-.37.371H1.112c-.205 0-.371-.166-.371-.37 0-.205.166-.371.37-.371z" transform="translate(1)"/>
        </g>
    </g>
</svg>
