<svg xmlns="http://www.w3.org/2000/svg" width="32" height="32" viewBox="0 0 32 32">
    <g fill="none" fill-rule="evenodd" transform="translate(6 5)">
        <circle cx="6" cy="10" r="5" fill="#FFF" opacity=".1"/>
        <path d="M0 0H19.751V19.751H0z"/>
        <g fill-rule="nonzero">
            <path fill="#FFF" d="M9.258 4.938c-.34 0-.617-.277-.617-.618 0-.34.276-.617.617-.617.68 0 1.234-.553 1.234-1.234 0-.681-.553-1.235-1.234-1.235-.68 0-1.234.554-1.234 1.235 0 .34-.277.617-.618.617-.34 0-.617-.276-.617-.617C6.79 1.107 7.897 0 9.26 0c1.36 0 2.468 1.107 2.468 2.469 0 1.361-1.107 2.469-2.469 2.469z" transform="translate(.617 .617)"/>
            <path fill="#FFF" d="M9.258 6.172c-.34 0-.617-.276-.617-.617V4.32c0-.34.276-.617.617-.617.34 0 .617.277.617.617v1.235c0 .34-.276.617-.617.617z" transform="translate(.617 .617)"/>
            <path fill="#FFF" d="M5.555 8.817c-.192 0-.382-.09-.503-.258-.198-.277-.134-.663.144-.861L8.9 5.052c.277-.197.663-.134.861.144.199.277.134.663-.143.861L5.913 8.703c-.108.077-.233.114-.358.114z" transform="translate(.617 .617)"/>
            <path fill="#FFF" d="M.618 12.344c-.193 0-.383-.09-.503-.259-.198-.277-.134-.662.144-.86l4.937-3.528c.277-.198.663-.134.861.144.198.277.134.663-.144.861L.976 12.229c-.109.077-.234.115-.358.115z" transform="translate(.617 .617)"/>
            <path fill="#FFF" d="M5.555 12.344H.617c-.34 0-.617-.276-.617-.617 0-.341.277-.617.617-.617h4.938c.34 0 .617.276.617.617 0 .341-.276.617-.617.617z" transform="translate(.617 .617)"/>
            <path fill="#FFF" d="M17.899 12.344H5.555c-.34 0-.617-.276-.617-.617 0-.341.276-.617.617-.617h12.344c.341 0 .617.276.617.617 0 .341-.276.617-.617.617z" transform="translate(.617 .617)"/>
            <path fill="#FFF" d="M17.898 12.344c-.124 0-.25-.038-.358-.115l-4.937-3.527c-.277-.198-.342-.584-.144-.861.199-.277.584-.341.861-.144l4.938 3.527c.277.198.342.584.143.861-.12.169-.31.26-.503.26z" transform="translate(.617 .617)"/>
            <path fill="#FFF" d="M12.96 8.817c-.123 0-.249-.037-.357-.114L8.899 6.057c-.277-.198-.341-.584-.143-.86.198-.279.584-.342.86-.145l3.704 2.646c.277.198.342.584.143.86-.12.17-.31.26-.502.26z" transform="translate(.617 .617)"/>
            <path stroke="#FFF" stroke-width="1.198" d="M2.469 11.727v2.763c0 .509.553.922 1.234.922h11.11c.68 0 1.234-.413 1.234-.922v-2.763H2.47z" transform="translate(.617 .617)"/>
            <path fill="#FFF" d="M15.43 18.516H3.086c-.34 0-.617-.276-.617-.617 0-.341.276-.617.617-.617H15.43c.341 0 .617.276.617.617 0 .341-.276.617-.617.617z" transform="translate(.617 .617)"/>
        </g>
    </g>
</svg>
