<svg xmlns="http://www.w3.org/2000/svg" width="32" height="32" viewBox="0 0 32 32">
    <g fill="#FFF" fill-rule="evenodd" transform="translate(7 5)">
        <circle cx="16" cy="5" r="5" opacity=".1"/>
        <g fill-rule="nonzero">
            <path d="M17.02 0H1.38C.618 0 0 .618 0 1.38c0 .762.618 1.38 1.38 1.38h.46v11.77c0 .122.048.24.135.327.087.086.206.134.328.133.122 0 .238-.049.322-.135L3.68 13.8l1.19 1.19c.172.172.406.269.65.269s.478-.097.65-.27L7.36 13.8l1.19 1.19c.172.172.406.269.65.269s.478-.097.65-.27l1.19-1.189 1.19 1.19c.172.172.406.269.65.269s.478-.097.65-.27l1.19-1.189 1.055 1.055c.084.086.2.135.322.135.122.001.24-.047.328-.133.087-.087.135-.205.135-.328V2.76h.46c.762 0 1.38-.618 1.38-1.38C18.4.618 17.782 0 17.02 0zM1.84 1.84h-.46c-.254 0-.46-.206-.46-.46s.206-.46.46-.46h.46v.92zm13.8 11.579l-.92-.92-1.84 1.84-1.84-1.84-1.84 1.84-1.84-1.84-1.84 1.84-1.84-1.84-.92.92V.92h12.88v12.499zM17.02 1.84h-.46V.92h.46c.254 0 .46.206.46.46s-.206.46-.46.46z" transform="translate(0 4)"/>
            <path d="M5.06 4.6h8.28c.254 0 .46-.206.46-.46s-.206-.46-.46-.46H5.06c-.254 0-.46.206-.46.46s.206.46.46.46zM5.06 7.36h8.28c.254 0 .46-.206.46-.46s-.206-.46-.46-.46H5.06c-.254 0-.46.206-.46.46s.206.46.46.46zM5.06 10.12h8.28c.254 0 .46-.206.46-.46s-.206-.46-.46-.46H5.06c-.254 0-.46.206-.46.46s.206.46.46.46z" transform="translate(0 4)"/>
        </g>
    </g>
</svg>
