<svg xmlns="http://www.w3.org/2000/svg" width="32" height="32" viewBox="0 0 32 32">
    <g fill="#FFF" fill-rule="evenodd" transform="translate(6 4)">
        <g fill-rule="nonzero">
            <path d="M9.126 8.91h-5.94l-.394-.501.426-1.742c.143-.587.66-.997 1.256-.997h3.364c.595 0 1.112.41 1.255.997l.425 1.742-.392.501zM3.702 8.1H8.61l-.303-1.24c-.055-.224-.248-.38-.469-.38H4.474c-.222 0-.414.156-.47.38L3.703 8.1zM16.253 8.91h-5.94l-.393-.501.425-1.742c.144-.587.661-.997 1.257-.997h3.364c.595 0 1.112.41 1.255.997l.425 1.742-.393.501zM10.83 8.1h4.908l-.303-1.24c-.055-.224-.248-.38-.469-.38h-3.364c-.22 0-.414.156-.469.38L10.83 8.1z" transform="translate(0 4)"/>
            <path d="M17.82 16.2c-.893 0-1.62-.727-1.62-1.62H3.24c0 .893-.727 1.62-1.62 1.62-.893 0-1.62-.727-1.62-1.62v-4.05C0 9.19 1.09 8.1 2.43 8.1h14.582c1.339 0 2.428 1.09 2.428 2.428v4.052c0 .893-.727 1.62-1.62 1.62zM2.835 13.77h13.77l.405.405v.405c0 .447.363.81.81.81.447 0 .81-.363.81-.81v-4.052c0-.892-.726-1.618-1.618-1.618H2.429c-.892 0-1.619.726-1.619 1.62v4.05c0 .447.364.81.81.81.446 0 .81-.363.81-.81v-.405l.405-.405z" transform="translate(0 4)"/>
            <path d="M17.415 8.91H2.025l-.405-.405V1.622C1.62.727 2.347 0 3.242 0h12.956c.895 0 1.622.727 1.622 1.622v6.883l-.405.405zM2.43 8.1h14.58V1.622c0-.448-.364-.812-.812-.812H3.242c-.448 0-.812.364-.812.812V8.1z" transform="translate(0 4)"/>
        </g>
        <circle cx="16" cy="5" r="5" opacity=".1"/>
    </g>
</svg>
